<svg width="18" height="18" viewBox="0 0 18 18" fill="none" xmlns="http://www.w3.org/2000/svg">
<path fill-rule="evenodd" clip-rule="evenodd" d="M3.68751 4.45833C3.2848 4.45833 2.95834 4.78479 2.95834 5.1875V13.9375C2.95834 14.3402 3.2848 14.6667 3.68751 14.6667H12.4375C12.8402 14.6667 13.1666 14.3402 13.1666 13.9375V9.92708C13.1666 9.5244 13.4931 9.19792 13.8958 9.19792C14.2985 9.19792 14.625 9.5244 14.625 9.92708V13.9375C14.625 15.1456 13.6456 16.125 12.4375 16.125H3.68751C2.47938 16.125 1.5 15.1456 1.5 13.9375V5.1875C1.5 3.97938 2.47938 3 3.68751 3H7.69792C8.1006 3 8.42708 3.32646 8.42708 3.72916C8.42708 4.13188 8.1006 4.45833 7.69792 4.45833H3.68751Z" fill="#1A56DB"/>
<path d="M14.5605 1.88299C14.0498 1.37234 13.2219 1.37234 12.7113 1.88298L11.4006 3.19369L14.4314 6.22444L15.7421 4.91374C16.2527 4.4031 16.2527 3.57517 15.7421 3.06453L14.5605 1.88299Z" fill="#1A56DB"/>
<path d="M13.6358 7.01995L10.6051 3.9892L6.45171 8.14253C6.18864 8.40563 6.00202 8.73526 5.91179 9.09616L5.26681 11.6761C5.21888 11.8678 5.27505 12.0705 5.41477 12.2102C5.55448 12.35 5.75726 12.4061 5.94894 12.3582L8.52885 11.7132C8.88975 11.623 9.21938 11.4364 9.48248 11.1733L13.6358 7.01995Z" fill="#1A56DB"/>
</svg>
